<svg id="svg" version="1.1" xmlns="http://www.w3.org/2000/svg" xmlns:xlink="http://www.w3.org/1999/xlink" width="400" height="112.40700743940484" viewBox="0, 0, 400,112.40700743940484"><g id="svgg"><path id="path0" d="M155.774 23.863 C 155.622 23.948,155.428 23.975,155.344 23.923 C 155.259 23.871,155.145 23.901,155.090 23.990 C 155.034 24.079,154.879 24.110,154.745 24.058 C 154.610 24.007,154.500 24.052,154.500 24.159 C 154.500 24.266,154.431 24.310,154.347 24.258 C 154.262 24.206,154.084 24.273,153.950 24.407 C 153.816 24.541,153.675 24.620,153.638 24.582 C 153.410 24.354,151.833 26.244,151.833 26.744 C 151.833 26.885,151.750 27.000,151.649 27.000 C 151.547 27.000,151.504 27.103,151.552 27.230 C 151.601 27.356,151.578 27.525,151.501 27.605 C 151.304 27.810,151.236 28.544,151.390 28.792 C 151.465 28.911,151.440 29.000,151.333 29.000 C 151.227 29.000,151.202 29.089,151.275 29.207 C 151.345 29.320,151.424 29.677,151.449 29.998 C 151.505 30.690,151.813 31.500,152.020 31.500 C 152.101 31.500,152.167 31.609,152.167 31.743 C 152.167 31.972,153.404 33.242,153.641 33.257 C 153.701 33.261,153.975 33.382,154.250 33.525 C 155.105 33.972,157.000 34.293,157.000 33.990 C 157.000 33.935,157.131 33.891,157.292 33.891 C 158.121 33.895,158.510 33.817,158.417 33.667 C 158.360 33.575,158.422 33.500,158.554 33.500 C 160.507 33.500,162.589 28.646,161.264 27.182 C 161.101 27.002,161.017 26.775,161.077 26.677 C 161.137 26.580,161.107 26.500,161.010 26.500 C 160.913 26.500,160.833 26.383,160.833 26.240 C 160.833 26.097,160.759 26.026,160.669 26.082 C 160.577 26.139,160.545 26.077,160.597 25.942 C 160.654 25.791,160.451 25.523,160.053 25.226 C 159.703 24.965,159.379 24.707,159.333 24.652 C 159.287 24.596,159.044 24.501,158.792 24.439 C 158.540 24.377,158.333 24.256,158.333 24.169 C 158.333 24.082,158.221 24.054,158.083 24.106 C 157.945 24.159,157.833 24.111,157.833 23.999 C 157.833 23.856,157.656 23.830,157.234 23.909 C 156.873 23.976,156.672 23.959,156.731 23.865 C 156.856 23.663,156.135 23.661,155.774 23.863 M169.132 23.757 C 169.081 23.808,168.861 23.871,168.644 23.896 C 168.427 23.922,168.100 24.000,167.917 24.070 C 167.733 24.140,167.358 24.282,167.083 24.385 C 165.135 25.116,163.741 28.512,164.599 30.438 C 164.757 30.793,164.903 31.140,164.922 31.208 C 164.942 31.277,164.977 31.371,165.000 31.417 C 165.023 31.462,165.051 31.568,165.063 31.650 C 165.113 32.015,167.085 33.598,167.443 33.560 C 167.564 33.548,167.615 33.616,167.555 33.712 C 167.488 33.821,167.579 33.852,167.799 33.794 C 167.993 33.743,168.179 33.786,168.213 33.888 C 168.330 34.239,170.998 34.033,171.750 33.615 C 171.933 33.513,172.135 33.444,172.199 33.461 C 172.262 33.479,172.459 33.310,172.635 33.086 C 172.811 32.861,173.003 32.725,173.061 32.783 C 173.119 32.841,173.167 32.816,173.167 32.726 C 173.167 32.636,173.300 32.417,173.464 32.240 C 175.151 30.406,174.994 27.229,173.121 25.300 C 172.512 24.673,171.194 23.803,171.419 24.177 C 171.535 24.369,171.516 24.378,171.324 24.223 C 171.191 24.117,170.783 23.979,170.417 23.917 C 170.050 23.855,169.632 23.772,169.488 23.734 C 169.344 23.695,169.184 23.705,169.132 23.757 M89.964 24.091 C 89.917 24.138,89.653 24.205,89.376 24.240 C 87.708 24.451,86.140 26.456,85.980 28.583 C 85.879 29.912,85.944 67.618,86.049 69.000 C 86.101 69.688,86.192 70.438,86.250 70.667 C 86.308 70.896,86.380 71.358,86.409 71.695 C 86.439 72.031,86.514 72.388,86.576 72.489 C 86.639 72.590,86.726 72.872,86.770 73.116 C 86.815 73.360,86.901 73.640,86.962 73.738 C 87.024 73.836,87.088 74.007,87.104 74.117 C 87.175 74.582,87.997 76.167,88.167 76.167 C 88.269 76.167,88.310 76.236,88.258 76.320 C 88.206 76.404,88.277 76.586,88.415 76.725 C 88.553 76.863,88.667 77.035,88.667 77.107 C 88.667 77.179,88.813 77.391,88.992 77.577 C 89.171 77.764,89.621 78.244,89.992 78.645 C 90.363 79.046,90.667 79.327,90.667 79.270 C 90.667 79.213,90.817 79.317,91.000 79.500 C 91.183 79.683,91.428 79.833,91.543 79.833 C 91.659 79.833,91.847 79.983,91.961 80.167 C 92.076 80.350,92.258 80.500,92.365 80.500 C 92.473 80.500,92.866 80.641,93.239 80.813 C 94.222 81.268,94.564 81.391,94.735 81.351 C 94.818 81.332,94.930 81.378,94.985 81.455 C 95.130 81.660,96.792 82.045,96.994 81.921 C 97.089 81.862,97.167 81.892,97.167 81.988 C 97.167 82.084,97.335 82.158,97.542 82.152 C 97.748 82.146,98.142 82.182,98.417 82.232 C 99.557 82.439,159.845 82.464,160.051 82.258 C 160.162 82.147,160.335 82.084,160.435 82.117 C 160.535 82.150,160.708 82.067,160.821 81.932 C 160.933 81.797,161.117 81.722,161.230 81.766 C 161.459 81.853,162.536 80.759,162.378 80.600 C 162.323 80.545,162.365 80.500,162.472 80.500 C 162.579 80.500,162.667 80.412,162.667 80.305 C 162.667 80.197,162.772 79.991,162.902 79.846 C 163.031 79.702,163.183 79.288,163.239 78.926 C 163.362 78.139,163.500 77.940,163.500 78.550 C 163.500 78.792,163.645 79.247,163.822 79.562 C 163.998 79.877,164.103 80.175,164.053 80.224 C 163.916 80.362,164.660 81.333,164.902 81.333 C 165.019 81.333,165.251 81.483,165.417 81.667 C 165.583 81.850,165.879 82.000,166.076 82.000 C 166.272 82.000,166.527 82.094,166.642 82.208 C 166.862 82.428,186.064 82.556,186.417 82.340 C 186.508 82.283,186.808 82.215,187.083 82.188 C 187.576 82.139,189.167 81.243,189.167 81.014 C 189.167 80.950,189.285 80.751,189.429 80.574 C 189.573 80.396,189.644 80.344,189.586 80.458 C 189.528 80.573,189.520 80.667,189.569 80.667 C 189.726 80.667,190.157 79.713,190.049 79.604 C 189.991 79.547,190.024 79.500,190.120 79.500 C 190.217 79.500,190.346 79.235,190.407 78.912 C 190.530 78.255,190.814 78.255,190.742 78.913 C 190.717 79.144,190.772 79.333,190.866 79.333 C 190.959 79.333,190.995 79.440,190.945 79.570 C 190.895 79.699,190.967 79.849,191.104 79.902 C 191.242 79.954,191.312 80.067,191.260 80.151 C 191.098 80.413,192.435 81.651,193.264 82.006 C 193.987 82.316,208.268 82.555,209.500 82.278 C 209.898 82.189,210.730 81.773,210.970 81.544 C 211.091 81.428,211.249 81.333,211.321 81.333 C 211.597 81.333,212.347 80.490,212.234 80.307 C 212.160 80.188,212.189 80.161,212.308 80.234 C 212.420 80.303,212.509 80.245,212.521 80.093 C 212.609 78.994,213.333 78.045,213.333 79.029 C 213.333 79.534,214.167 80.978,214.525 81.091 C 214.694 81.145,214.834 81.278,214.834 81.386 C 214.835 81.587,215.856 82.048,216.738 82.245 C 217.398 82.393,232.656 82.382,233.451 82.233 C 234.584 82.021,235.833 81.295,235.833 80.848 C 235.833 80.748,235.910 80.667,236.003 80.667 C 236.096 80.667,236.293 80.385,236.440 80.042 C 236.587 79.698,236.773 79.286,236.854 79.127 C 236.934 78.968,237.001 78.706,237.003 78.544 C 237.005 78.301,237.031 78.292,237.158 78.492 C 237.242 78.625,237.276 78.792,237.232 78.862 C 237.189 78.933,237.266 79.208,237.403 79.474 C 237.541 79.740,237.606 80.005,237.549 80.062 C 237.491 80.120,237.516 80.167,237.603 80.167 C 237.690 80.167,237.892 80.387,238.051 80.656 C 238.388 81.227,239.825 82.095,240.667 82.236 C 241.708 82.410,263.575 82.360,263.634 82.182 C 263.664 82.092,263.796 82.060,263.927 82.111 C 264.059 82.161,264.167 82.119,264.167 82.018 C 264.167 81.916,264.223 81.849,264.292 81.869 C 264.678 81.978,265.674 81.147,266.056 80.395 C 266.861 78.812,266.830 79.686,266.782 59.750 C 266.757 49.483,266.700 40.971,266.655 40.833 C 266.457 40.227,265.791 39.000,265.659 39.000 C 265.580 39.000,265.328 38.813,265.098 38.583 C 264.869 38.354,264.570 38.167,264.434 38.167 C 264.298 38.167,264.146 38.102,264.097 38.022 C 263.905 37.712,260.562 37.420,260.233 37.685 C 260.132 37.767,259.851 37.849,259.608 37.869 C 259.365 37.890,259.167 37.969,259.167 38.046 C 259.167 38.123,259.092 38.140,259.000 38.083 C 258.908 38.027,258.833 38.060,258.833 38.157 C 258.833 38.254,258.730 38.333,258.604 38.333 C 258.478 38.333,258.089 38.596,257.738 38.917 C 257.388 39.238,257.165 39.500,257.243 39.500 C 257.321 39.500,257.270 39.631,257.129 39.792 C 256.492 40.517,256.525 39.582,256.511 57.318 L 256.500 72.219 252.625 72.084 C 248.613 71.943,246.790 71.945,243.875 72.091 L 242.167 72.176 242.157 71.546 C 242.139 70.322,242.193 55.162,242.238 48.750 C 242.263 45.175,242.248 42.186,242.204 42.108 C 242.161 42.030,242.100 41.638,242.068 41.237 C 241.945 39.673,240.282 37.833,238.990 37.833 C 238.812 37.833,238.667 37.776,238.667 37.706 C 238.667 37.466,235.466 37.509,234.989 37.756 C 234.743 37.883,234.496 37.940,234.439 37.883 C 234.382 37.826,234.185 37.916,234.001 38.082 C 233.817 38.249,233.667 38.337,233.667 38.277 C 233.667 38.218,233.521 38.295,233.342 38.448 C 233.163 38.601,233.062 38.799,233.118 38.889 C 233.173 38.978,233.137 39.002,233.039 38.941 C 232.933 38.875,232.667 39.222,232.388 39.790 L 231.917 40.750 231.872 56.458 L 231.827 72.167 225.038 72.167 L 218.250 72.167 218.250 57.083 C 218.250 48.788,218.213 42.000,218.167 42.000 C 218.121 41.999,218.073 41.671,218.060 41.269 C 218.048 40.868,217.935 40.357,217.810 40.134 C 217.169 38.989,216.772 38.515,216.286 38.319 C 215.991 38.200,215.708 38.042,215.657 37.969 C 215.606 37.895,215.363 37.818,215.116 37.798 C 214.869 37.777,214.667 37.703,214.667 37.632 C 214.667 37.128,209.947 37.809,209.655 38.354 C 209.563 38.526,209.378 38.667,209.244 38.667 C 209.110 38.667,209.000 38.779,209.000 38.917 C 209.000 39.054,208.921 39.167,208.824 39.167 C 208.571 39.167,207.944 40.646,207.906 41.333 C 207.888 41.654,207.865 48.723,207.854 57.042 L 207.833 72.167 201.708 72.167 L 195.583 72.167 195.634 65.375 C 195.791 44.537,195.775 42.184,195.472 41.203 C 195.314 40.692,195.217 40.220,195.258 40.154 C 195.298 40.089,195.219 39.992,195.082 39.939 C 194.945 39.887,194.830 39.748,194.827 39.630 C 194.810 39.121,193.589 38.078,192.833 37.928 C 192.787 37.919,192.637 37.839,192.500 37.751 C 192.204 37.562,188.872 37.455,188.603 37.626 C 188.500 37.692,188.360 37.755,188.292 37.768 C 188.223 37.781,188.129 37.810,188.083 37.833 C 187.977 37.887,187.714 37.952,187.500 37.979 C 187.286 38.006,186.000 39.166,186.000 39.332 C 186.000 39.402,185.875 39.750,185.723 40.105 C 185.330 41.017,185.354 39.978,185.343 56.792 L 185.333 72.167 184.333 72.167 C 183.783 72.167,183.333 72.110,183.332 72.042 C 183.332 71.973,182.282 71.909,180.999 71.900 C 179.716 71.891,178.667 71.929,178.666 71.984 C 178.666 72.038,176.379 72.112,173.583 72.147 L 168.500 72.210 168.497 71.647 C 168.495 71.337,168.508 67.483,168.525 63.083 C 168.573 50.954,168.533 42.668,168.423 41.833 C 168.369 41.421,168.314 40.990,168.301 40.875 C 168.288 40.760,168.215 40.667,168.139 40.667 C 168.063 40.667,168.009 40.610,168.020 40.542 C 168.031 40.473,168.021 40.360,167.999 40.292 C 167.977 40.223,167.944 40.110,167.927 40.042 C 167.812 39.593,167.179 38.811,166.804 38.655 C 166.558 38.553,166.317 38.365,166.268 38.238 C 166.219 38.109,166.065 38.050,165.923 38.104 C 165.782 38.158,165.667 38.132,165.667 38.046 C 165.667 37.959,165.573 37.882,165.458 37.874 C 165.344 37.865,165.025 37.798,164.750 37.724 C 164.019 37.528,161.545 37.588,161.280 37.808 C 161.155 37.912,161.003 37.948,160.943 37.887 C 160.883 37.827,160.833 37.870,160.833 37.982 C 160.833 38.094,160.753 38.136,160.654 38.075 C 160.555 38.014,160.327 38.123,160.147 38.316 C 159.968 38.509,159.730 38.667,159.619 38.667 C 159.388 38.667,158.444 40.089,158.444 40.436 C 158.444 40.563,158.398 40.667,158.341 40.667 C 158.193 40.667,158.199 40.056,158.184 56.757 L 158.171 72.097 129.310 72.033 C 113.436 71.998,100.366 71.943,100.266 71.910 C 100.165 71.877,99.769 71.769,99.384 71.671 C 98.542 71.456,97.333 70.696,97.333 70.382 C 97.333 70.258,97.221 70.113,97.084 70.061 C 96.947 70.008,96.873 69.904,96.919 69.829 C 96.965 69.755,96.909 69.594,96.793 69.472 C 96.678 69.350,96.561 69.100,96.534 68.917 C 96.506 68.733,96.450 68.482,96.407 68.357 C 96.365 68.233,96.307 59.121,96.279 48.107 C 96.227 28.185,96.210 27.370,95.827 26.909 C 95.716 26.776,95.674 26.667,95.734 26.667 C 95.793 26.667,95.726 26.442,95.583 26.167 C 95.441 25.892,95.214 25.667,95.079 25.667 C 94.944 25.667,94.833 25.563,94.833 25.436 C 94.833 25.309,94.646 25.082,94.417 24.932 C 94.188 24.782,94.000 24.704,94.000 24.758 C 94.000 24.813,93.882 24.739,93.738 24.595 C 93.594 24.451,93.350 24.324,93.196 24.312 C 93.043 24.300,92.767 24.263,92.583 24.229 C 91.925 24.106,90.048 24.008,89.964 24.091 M272.587 24.136 C 272.558 24.164,272.283 24.193,271.975 24.199 C 271.668 24.205,271.342 24.262,271.250 24.326 C 271.158 24.389,270.903 24.451,270.682 24.462 C 270.461 24.474,270.227 24.568,270.163 24.673 C 270.099 24.777,269.998 24.855,269.940 24.848 C 269.651 24.809,269.537 24.867,269.075 25.292 C 268.453 25.862,267.825 26.867,267.770 27.378 C 267.748 27.590,267.685 27.836,267.631 27.924 C 267.385 28.324,267.532 31.081,267.832 31.703 C 268.002 32.056,268.052 32.292,267.944 32.238 C 267.837 32.185,267.919 32.290,268.125 32.472 C 268.331 32.654,268.500 32.883,268.500 32.980 C 268.500 33.077,268.706 33.268,268.958 33.405 C 269.210 33.541,269.342 33.659,269.250 33.666 C 269.158 33.673,269.419 33.836,269.828 34.028 C 270.506 34.345,271.278 34.513,272.292 34.564 L 272.667 34.583 272.667 56.354 C 272.667 78.982,272.650 78.349,273.278 79.833 C 273.336 79.971,273.404 80.185,273.430 80.310 C 273.496 80.638,274.187 81.333,274.446 81.333 C 274.567 81.333,274.648 81.424,274.625 81.534 C 274.602 81.645,274.677 81.748,274.792 81.763 C 274.906 81.779,275.056 81.810,275.125 81.832 C 275.194 81.855,275.306 81.864,275.375 81.853 C 275.444 81.842,275.500 81.898,275.500 81.978 C 275.500 82.336,278.710 82.504,279.833 82.204 C 280.641 81.989,282.000 81.136,282.000 80.845 C 282.000 80.713,282.155 80.439,282.345 80.237 C 282.535 80.035,282.717 79.730,282.749 79.560 C 282.782 79.389,282.819 79.250,282.833 79.250 C 283.039 79.250,283.080 74.592,283.064 53.250 C 283.044 28.064,283.037 27.333,282.803 27.333 C 282.734 27.333,282.717 27.228,282.767 27.100 C 282.816 26.972,282.776 26.818,282.678 26.757 C 282.580 26.697,282.500 26.497,282.500 26.314 C 282.500 26.130,282.425 26.027,282.333 26.083 C 282.242 26.140,282.167 26.082,282.167 25.956 C 282.167 25.829,281.967 25.543,281.723 25.321 C 281.479 25.098,281.336 25.029,281.404 25.167 C 281.473 25.304,281.391 25.262,281.223 25.073 C 280.842 24.645,279.592 24.090,279.348 24.241 C 279.248 24.303,279.073 24.292,278.958 24.218 C 278.767 24.094,272.706 24.016,272.587 24.136 M56.625 24.409 C 56.373 24.540,56.167 24.599,56.167 24.540 C 56.167 24.481,56.077 24.523,55.967 24.633 C 55.857 24.743,55.636 24.833,55.476 24.833 C 55.316 24.833,55.069 25.000,54.926 25.204 C 54.783 25.407,54.667 25.503,54.667 25.417 C 54.667 25.219,54.208 25.861,54.201 26.068 C 54.199 26.152,54.080 26.285,53.939 26.364 C 53.797 26.444,53.723 26.619,53.775 26.754 C 53.827 26.889,53.798 27.000,53.712 27.000 C 53.626 27.000,53.547 27.094,53.537 27.208 C 53.483 27.807,53.366 28.356,53.274 28.448 C 53.216 28.506,53.263 28.668,53.376 28.808 C 53.490 28.949,53.504 29.017,53.408 28.959 C 53.285 28.886,53.239 35.357,53.254 50.469 L 53.277 72.083 46.513 71.959 C 42.794 71.891,39.731 71.891,39.708 71.959 C 39.686 72.027,36.592 72.046,32.833 72.000 C 29.075 71.954,26.000 71.973,26.000 72.042 C 26.000 72.110,24.613 72.167,22.917 72.167 C 21.221 72.167,19.833 72.107,19.833 72.035 C 19.833 71.963,19.458 71.891,18.998 71.875 C 18.539 71.860,17.808 71.690,17.373 71.498 C 16.939 71.306,16.573 71.171,16.560 71.199 C 16.548 71.227,16.373 71.063,16.173 70.833 C 15.972 70.604,15.863 70.522,15.930 70.651 C 16.010 70.805,15.986 70.844,15.859 70.766 C 15.753 70.701,15.667 70.497,15.667 70.314 C 15.667 70.130,15.595 70.024,15.508 70.078 C 15.421 70.132,15.301 69.912,15.240 69.589 C 15.180 69.267,15.082 69.033,15.023 69.069 C 14.869 69.164,14.836 68.653,14.745 64.750 C 14.701 62.825,14.614 60.987,14.554 60.667 C 14.493 60.346,14.457 60.027,14.472 59.958 C 14.487 59.890,14.417 59.833,14.316 59.833 C 14.214 59.833,14.174 59.721,14.227 59.583 C 14.280 59.446,14.238 59.333,14.134 59.333 C 14.030 59.333,13.991 59.287,14.048 59.229 C 14.360 58.918,12.217 57.013,11.827 57.254 C 11.739 57.308,11.667 57.265,11.667 57.158 C 11.667 57.035,11.517 57.001,11.260 57.066 C 11.037 57.122,10.806 57.091,10.748 56.996 C 10.614 56.780,7.513 56.883,7.359 57.109 C 7.299 57.197,6.987 57.371,6.667 57.496 C 6.025 57.745,5.622 58.011,5.726 58.115 C 5.763 58.151,5.577 58.397,5.313 58.661 C 4.895 59.079,4.789 59.333,4.848 59.773 C 4.855 59.832,4.762 59.941,4.639 60.017 C 4.462 60.127,4.420 61.089,4.433 64.786 C 4.450 69.656,4.461 69.900,4.685 70.837 C 4.762 71.159,4.863 71.714,4.908 72.069 C 5.074 73.361,6.724 77.087,7.043 76.890 C 7.143 76.828,7.169 76.861,7.103 76.968 C 6.983 77.163,8.944 79.331,9.246 79.336 C 9.340 79.338,9.593 79.525,9.809 79.752 C 10.024 79.980,10.268 80.124,10.350 80.073 C 10.433 80.022,10.500 80.048,10.500 80.130 C 10.500 80.298,12.539 81.333,12.871 81.334 C 12.988 81.335,13.303 81.450,13.572 81.590 C 13.841 81.731,14.153 81.810,14.264 81.768 C 14.376 81.725,14.513 81.735,14.568 81.790 C 14.624 81.846,14.837 81.909,15.043 81.930 C 15.248 81.952,15.698 82.043,16.042 82.134 C 16.496 82.253,16.667 82.246,16.669 82.107 C 16.671 81.986,16.716 81.977,16.794 82.083 C 16.990 82.350,16.415 82.343,38.472 82.332 C 58.216 82.323,60.177 82.297,60.833 82.043 C 61.130 81.927,61.283 81.882,61.475 81.854 C 61.709 81.820,62.667 80.845,62.667 80.642 C 62.667 80.538,62.786 80.366,62.932 80.259 C 63.078 80.152,63.210 79.870,63.224 79.632 C 63.238 79.394,63.298 79.228,63.357 79.265 C 63.644 79.442,63.756 28.501,63.471 27.574 C 63.213 26.738,62.835 26.000,62.665 26.000 C 62.564 26.000,62.524 25.929,62.577 25.843 C 62.746 25.571,61.966 24.973,60.917 24.569 C 59.936 24.191,57.238 24.091,56.625 24.409 M76.250 37.749 C 74.910 38.174,73.556 39.342,73.398 40.208 C 73.385 40.277,73.360 40.352,73.341 40.375 C 73.135 40.631,73.090 43.837,73.049 61.167 C 73.022 72.212,72.991 81.287,72.980 81.333 C 72.969 81.379,72.971 81.478,72.984 81.552 C 72.997 81.627,72.923 82.002,72.819 82.385 C 72.716 82.768,72.604 83.229,72.569 83.408 C 72.535 83.587,72.392 83.797,72.253 83.875 C 72.114 83.953,72.000 84.125,72.000 84.258 C 72.000 84.391,71.943 84.500,71.873 84.500 C 71.804 84.500,71.541 84.691,71.290 84.923 C 71.039 85.156,70.833 85.302,70.833 85.247 C 70.833 85.193,70.667 85.265,70.463 85.407 C 70.259 85.550,69.889 85.667,69.639 85.667 C 69.390 85.667,69.142 85.738,69.088 85.825 C 69.034 85.913,68.382 85.964,67.638 85.940 C 66.895 85.916,66.428 85.952,66.602 86.020 C 66.869 86.124,66.874 86.145,66.635 86.155 C 66.480 86.161,66.305 86.089,66.246 85.993 C 66.186 85.897,65.978 85.871,65.778 85.936 C 65.259 86.102,64.006 86.126,64.104 85.967 C 64.149 85.894,64.074 85.833,63.936 85.833 C 63.799 85.833,63.646 85.898,63.597 85.978 C 63.548 86.057,63.332 86.088,63.118 86.047 C 62.042 85.842,59.523 87.239,59.395 88.113 C 59.373 88.262,59.257 88.446,59.136 88.522 C 59.015 88.599,58.982 88.663,59.062 88.664 C 59.142 88.666,59.115 88.778,59.002 88.914 C 58.250 89.820,59.275 95.836,60.049 95.062 C 60.099 95.012,60.219 95.120,60.316 95.302 C 60.502 95.649,61.435 96.060,61.686 95.905 C 61.767 95.855,61.833 95.881,61.833 95.962 C 61.833 96.044,61.927 96.121,62.042 96.132 C 62.156 96.144,62.587 96.190,63.000 96.235 C 63.991 96.343,69.213 96.360,70.167 96.259 C 70.976 96.173,71.540 96.093,72.583 95.913 C 72.950 95.850,73.344 95.794,73.458 95.788 C 73.573 95.782,73.667 95.732,73.667 95.675 C 73.667 95.619,73.857 95.557,74.089 95.538 C 74.321 95.519,74.734 95.388,75.006 95.247 C 75.278 95.106,75.500 95.036,75.500 95.091 C 75.500 95.146,75.696 95.036,75.936 94.848 C 76.176 94.659,76.439 94.545,76.520 94.595 C 76.600 94.645,76.667 94.602,76.667 94.500 C 76.667 94.398,76.733 94.355,76.814 94.405 C 76.896 94.455,77.055 94.385,77.168 94.248 C 77.281 94.112,77.447 94.000,77.536 94.000 C 77.790 94.000,78.501 93.390,78.383 93.272 C 78.325 93.214,78.440 93.167,78.639 93.167 C 78.855 93.167,79.000 93.062,79.000 92.907 C 79.000 92.764,79.075 92.693,79.167 92.750 C 79.258 92.807,79.336 92.792,79.339 92.718 C 79.342 92.644,79.717 92.171,80.172 91.667 C 80.627 91.162,81.000 90.666,81.000 90.564 C 81.000 90.462,81.155 90.181,81.344 89.941 C 81.533 89.700,81.642 89.427,81.584 89.335 C 81.527 89.242,81.555 89.167,81.646 89.167 C 81.811 89.167,82.095 88.526,82.033 88.292 C 82.015 88.223,82.075 88.167,82.167 88.167 C 82.258 88.167,82.333 88.012,82.333 87.822 C 82.333 87.633,82.408 87.338,82.499 87.168 C 82.652 86.883,82.788 86.237,82.921 85.167 C 82.950 84.938,82.985 84.750,83.000 84.750 C 83.042 84.750,83.167 83.995,83.249 83.250 C 83.383 82.035,83.439 41.333,83.307 41.333 C 83.235 41.333,83.215 41.236,83.260 41.116 C 83.340 40.910,83.103 40.291,82.567 39.302 C 82.434 39.055,82.175 38.806,81.993 38.748 C 81.811 38.690,81.705 38.573,81.757 38.488 C 81.810 38.403,81.745 38.333,81.614 38.333 C 81.482 38.333,81.279 38.219,81.163 38.079 C 81.047 37.940,80.916 37.862,80.871 37.907 C 80.826 37.952,80.631 37.903,80.436 37.798 C 79.934 37.527,77.055 37.493,76.250 37.749 M32.652 42.404 C 32.613 42.442,32.245 42.516,31.833 42.567 C 30.648 42.714,30.255 42.818,30.195 42.999 C 30.164 43.093,30.082 43.134,30.013 43.091 C 29.836 42.982,28.237 44.459,28.379 44.601 C 28.443 44.665,28.388 44.799,28.258 44.900 C 27.835 45.227,27.675 46.848,27.720 50.375 L 27.763 53.833 26.573 53.833 C 25.043 53.833,24.500 54.238,24.500 55.375 C 24.500 56.266,24.819 56.997,25.208 56.999 C 25.369 56.999,25.500 57.056,25.500 57.125 C 25.500 57.257,42.323 57.232,42.456 57.100 C 42.498 57.058,42.650 57.068,42.794 57.123 C 42.966 57.189,43.014 57.157,42.934 57.028 C 42.863 56.914,42.913 56.833,43.054 56.833 C 43.479 56.833,43.649 55.804,43.406 54.697 C 43.239 53.934,42.623 53.848,37.154 53.826 L 32.098 53.805 31.730 53.377 C 30.922 52.437,30.656 47.486,31.375 46.768 C 31.535 46.607,31.667 46.414,31.667 46.338 C 31.667 45.989,32.917 45.843,36.061 45.827 C 39.639 45.808,39.723 45.794,39.906 45.206 C 39.971 44.998,40.080 44.863,40.149 44.906 C 40.356 45.034,40.246 43.616,40.012 43.140 C 39.856 42.824,39.586 42.644,39.073 42.515 C 38.401 42.346,32.807 42.249,32.652 42.404 M247.708 85.904 C 247.502 86.000,247.333 86.136,247.333 86.206 C 247.333 86.276,247.165 86.334,246.958 86.335 C 246.154 86.338,244.656 88.306,244.415 89.679 C 244.362 89.977,244.287 90.273,244.248 90.336 C 244.129 90.529,244.504 92.542,244.760 93.078 C 245.018 93.621,245.999 94.838,246.000 94.616 C 246.000 94.543,246.177 94.674,246.394 94.908 C 246.611 95.142,246.924 95.333,247.089 95.333 C 247.255 95.333,247.521 95.451,247.681 95.596 C 248.075 95.953,250.414 96.004,251.000 95.668 C 251.229 95.537,251.473 95.445,251.542 95.465 C 251.610 95.484,251.667 95.421,251.667 95.323 C 251.667 95.226,251.741 95.193,251.831 95.249 C 251.922 95.305,252.090 95.274,252.206 95.180 C 252.973 94.559,253.333 94.186,253.333 94.013 C 253.333 93.903,253.408 93.860,253.500 93.917 C 253.592 93.973,253.667 93.935,253.667 93.831 C 253.667 93.728,253.775 93.535,253.907 93.403 C 254.039 93.271,254.118 93.014,254.083 92.831 C 254.048 92.649,254.098 92.500,254.194 92.500 C 254.290 92.500,254.326 92.388,254.273 92.250 C 254.220 92.112,254.234 92.000,254.303 92.000 C 254.514 92.000,254.616 90.651,254.454 90.000 C 254.397 89.771,254.312 89.407,254.265 89.191 C 254.218 88.976,254.102 88.706,254.008 88.593 C 253.913 88.479,253.869 88.353,253.910 88.313 C 253.950 88.272,253.734 87.925,253.431 87.541 C 253.127 87.158,252.831 86.891,252.773 86.950 C 252.714 87.008,252.667 86.964,252.667 86.851 C 252.667 86.739,252.592 86.693,252.500 86.750 C 252.408 86.807,252.333 86.739,252.333 86.601 C 252.333 86.444,252.112 86.307,251.750 86.239 C 251.429 86.179,251.167 86.065,251.167 85.987 C 251.167 85.908,251.054 85.887,250.917 85.940 C 250.779 85.992,250.667 85.968,250.667 85.885 C 250.667 85.675,248.165 85.690,247.708 85.904 M261.122 85.800 C 260.670 85.855,259.592 86.330,259.914 86.332 C 260.005 86.333,259.786 86.490,259.429 86.681 C 258.725 87.059,258.240 87.558,258.066 88.083 C 258.005 88.267,257.891 88.458,257.812 88.509 C 257.733 88.560,257.654 88.823,257.637 89.093 C 257.620 89.363,257.536 89.676,257.451 89.789 C 257.295 89.997,257.269 91.061,257.401 91.833 C 257.440 92.063,257.478 92.348,257.486 92.468 C 257.494 92.588,257.574 92.641,257.665 92.585 C 257.755 92.529,257.789 92.587,257.741 92.715 C 257.692 92.842,257.767 93.043,257.909 93.160 C 258.051 93.278,258.169 93.459,258.172 93.562 C 258.191 94.192,260.488 95.881,261.153 95.753 C 261.344 95.716,261.500 95.754,261.500 95.837 C 261.500 96.136,263.890 95.806,264.667 95.401 C 265.521 94.955,266.333 94.271,266.333 93.998 C 266.333 93.897,266.398 93.853,266.476 93.902 C 266.555 93.951,266.754 93.711,266.918 93.370 C 267.082 93.029,267.277 92.624,267.352 92.470 C 267.633 91.893,267.525 89.502,267.189 88.876 C 267.092 88.693,267.057 88.498,267.113 88.443 C 267.169 88.387,267.092 88.294,266.941 88.236 C 266.791 88.179,266.710 88.065,266.761 87.983 C 266.812 87.900,266.769 87.833,266.667 87.833 C 266.564 87.833,266.522 87.767,266.572 87.685 C 266.623 87.603,266.496 87.424,266.290 87.287 C 266.085 87.150,265.736 86.880,265.516 86.686 C 265.296 86.492,265.007 86.333,264.875 86.333 C 264.743 86.333,264.430 86.187,264.179 86.009 C 263.736 85.693,262.615 85.617,261.122 85.800 " stroke="none" fill="#e4e4e4" fill-rule="evenodd"></path><path id="path1" d="M342.750 4.182 C 340.092 5.734,337.804 7.060,337.667 7.128 C 337.446 7.238,336.359 7.879,335.027 8.685 C 334.783 8.832,334.302 9.113,333.958 9.310 C 333.615 9.506,333.090 9.807,332.792 9.980 C 332.494 10.152,331.762 10.573,331.167 10.917 C 330.571 11.260,329.858 11.672,329.583 11.833 C 329.308 11.993,323.721 15.218,317.167 18.999 C 310.612 22.780,304.987 26.025,304.667 26.210 C 304.346 26.396,303.746 26.735,303.333 26.964 C 302.921 27.193,302.384 27.520,302.141 27.690 C 301.898 27.861,301.616 28.000,301.516 28.000 C 301.416 28.000,301.333 28.057,301.333 28.126 C 301.333 28.195,301.120 28.346,300.859 28.462 C 300.598 28.577,300.298 28.862,300.192 29.094 C 299.860 29.822,299.922 83.315,300.256 83.791 C 300.396 83.992,302.027 85.014,303.881 86.063 C 305.734 87.113,307.512 88.123,307.833 88.308 C 308.154 88.493,308.785 88.844,309.235 89.088 C 309.686 89.332,312.536 90.959,315.569 92.704 C 318.602 94.449,321.458 96.073,321.917 96.313 C 322.375 96.553,322.787 96.787,322.833 96.833 C 322.879 96.879,323.179 97.049,323.500 97.210 C 323.821 97.371,324.346 97.663,324.667 97.858 C 324.987 98.053,325.587 98.401,326.000 98.631 C 326.412 98.862,329.188 100.450,332.167 102.161 C 335.146 103.873,337.921 105.453,338.333 105.673 C 338.746 105.893,339.196 106.158,339.333 106.263 C 339.574 106.446,340.356 106.885,342.667 108.133 C 343.262 108.455,343.949 108.857,344.192 109.026 C 344.436 109.195,344.674 109.333,344.721 109.333 C 344.768 109.333,345.456 109.708,346.250 110.167 C 348.144 111.261,347.877 111.320,352.244 108.833 C 354.336 107.642,356.074 106.667,356.106 106.667 C 356.162 106.667,362.655 102.988,363.167 102.666 C 363.304 102.580,363.679 102.379,364.000 102.220 C 366.357 101.052,367.169 100.415,366.729 100.076 C 366.507 99.906,331.888 79.896,325.359 76.164 C 322.941 74.782,322.169 74.343,321.359 73.886 C 320.841 73.595,320.173 73.124,319.875 72.840 L 319.333 72.325 319.337 56.204 C 319.340 41.183,319.360 40.059,319.629 39.724 C 320.119 39.113,347.425 23.500,348.003 23.500 C 348.441 23.500,357.377 28.488,363.167 31.964 C 363.854 32.377,364.679 32.865,365.000 33.048 C 365.321 33.231,365.808 33.519,366.083 33.689 C 366.358 33.858,366.696 34.050,366.833 34.114 C 366.971 34.178,367.533 34.497,368.083 34.822 C 368.633 35.147,369.214 35.489,369.374 35.582 C 369.535 35.674,374.560 38.574,380.541 42.026 C 386.523 45.478,392.338 48.834,393.464 49.485 C 394.591 50.135,395.547 50.667,395.589 50.667 C 395.632 50.667,395.667 45.835,395.667 39.929 L 395.667 29.192 395.247 28.693 C 395.001 28.401,392.399 26.799,388.955 24.820 C 385.726 22.963,382.521 21.109,381.833 20.700 C 381.146 20.290,380.171 19.728,379.667 19.451 C 379.162 19.173,378.355 18.696,377.872 18.390 C 377.389 18.084,376.960 17.833,376.918 17.833 C 376.877 17.833,376.260 17.486,375.546 17.062 C 373.744 15.990,373.185 15.668,372.417 15.266 C 372.050 15.074,371.712 14.879,371.667 14.833 C 371.548 14.715,373.129 15.631,356.380 5.970 C 351.898 3.384,348.175 1.339,347.963 1.347 C 347.754 1.354,345.408 2.630,342.750 4.182 M337.198 39.835 C 336.986 39.924,336.049 40.443,335.115 40.988 C 334.181 41.533,332.890 42.265,332.247 42.614 C 329.253 44.241,328.672 44.607,328.508 44.965 C 328.245 45.543,328.277 55.131,328.544 55.650 C 328.733 56.016,330.667 57.333,331.017 57.333 C 331.099 57.333,331.167 57.408,331.167 57.500 C 331.167 57.592,331.238 57.667,331.326 57.667 C 331.414 57.667,331.849 57.881,332.293 58.143 C 333.275 58.722,334.443 59.381,335.667 60.048 C 336.171 60.322,336.696 60.630,336.833 60.732 C 336.971 60.833,337.262 61.017,337.481 61.141 C 337.700 61.264,338.150 61.519,338.481 61.707 C 338.812 61.895,339.496 62.274,340.000 62.548 C 340.504 62.822,341.029 63.130,341.167 63.232 C 341.304 63.333,341.596 63.517,341.815 63.641 C 342.033 63.764,342.483 64.018,342.815 64.206 C 343.146 64.394,343.754 64.735,344.167 64.964 C 344.579 65.193,345.104 65.508,345.333 65.663 C 345.563 65.819,345.863 65.994,346.000 66.053 C 346.137 66.111,346.550 66.345,346.917 66.571 C 347.283 66.798,347.771 67.087,348.000 67.214 C 348.229 67.341,348.717 67.619,349.083 67.832 C 350.509 68.658,351.859 69.363,351.908 69.308 C 352.796 68.307,361.284 52.917,361.044 52.741 C 359.898 51.901,338.559 39.798,338.124 39.742 C 337.826 39.704,337.410 39.745,337.198 39.835 M368.710 57.952 C 368.532 58.208,368.337 58.529,368.276 58.667 C 368.214 58.804,368.025 59.142,367.856 59.417 C 367.577 59.869,367.305 60.340,366.641 61.519 C 366.517 61.738,366.333 62.029,366.232 62.167 C 366.130 62.304,365.822 62.829,365.548 63.333 C 365.273 63.837,364.889 64.512,364.695 64.833 C 364.500 65.154,364.114 65.829,363.836 66.333 C 363.558 66.837,363.198 67.475,363.036 67.750 C 362.874 68.025,362.416 68.813,362.018 69.500 C 361.620 70.188,360.928 71.370,360.480 72.127 C 359.445 73.879,359.372 73.730,362.000 75.204 C 362.412 75.436,367.908 78.597,374.212 82.229 C 381.449 86.399,385.838 88.833,386.118 88.833 C 386.562 88.833,387.967 88.170,390.000 87.000 C 390.596 86.657,391.743 86.028,392.550 85.602 C 394.642 84.495,394.702 84.460,395.208 84.010 L 395.667 83.604 395.667 78.211 L 395.667 72.817 395.236 72.418 C 394.843 72.054,393.181 71.067,390.583 69.654 C 390.033 69.355,389.304 68.936,388.962 68.722 C 388.620 68.508,388.306 68.333,388.264 68.333 C 388.223 68.333,387.828 68.115,387.386 67.849 C 385.060 66.445,369.697 57.694,369.391 57.599 C 369.115 57.514,368.956 57.596,368.710 57.952 " stroke="none" fill="#6404ec" fill-rule="evenodd"></path><path id="path2" d="M158.333 24.159 C 158.333 24.323,158.979 24.577,159.097 24.459 C 159.136 24.420,158.980 24.302,158.751 24.197 C 158.521 24.093,158.333 24.075,158.333 24.159 M53.233 31.583 C 53.234 32.958,53.259 33.499,53.291 32.784 C 53.322 32.069,53.322 30.944,53.290 30.284 C 53.259 29.624,53.233 30.208,53.233 31.583 M262.750 37.667 C 262.933 37.745,263.196 37.810,263.333 37.810 C 263.491 37.810,263.460 37.757,263.250 37.667 C 263.067 37.588,262.804 37.523,262.667 37.523 C 262.509 37.523,262.540 37.576,262.750 37.667 M239.500 37.908 C 239.500 37.954,239.725 38.108,240.000 38.250 C 240.275 38.392,240.500 38.471,240.500 38.425 C 240.500 38.379,240.275 38.226,240.000 38.083 C 239.725 37.941,239.500 37.862,239.500 37.908 M73.772 39.375 L 73.472 39.917 73.816 39.500 C 74.120 39.130,74.256 38.833,74.119 38.833 C 74.093 38.833,73.937 39.077,73.772 39.375 M53.235 42.667 C 53.235 44.271,53.260 44.927,53.291 44.125 C 53.321 43.323,53.321 42.010,53.291 41.208 C 53.260 40.406,53.235 41.063,53.235 42.667 M185.488 40.292 C 185.481 40.360,185.442 40.600,185.401 40.823 C 185.359 41.047,185.368 41.187,185.420 41.135 C 185.550 41.006,185.694 40.167,185.587 40.167 C 185.539 40.167,185.494 40.223,185.488 40.292 M158.080 57.167 C 158.080 65.462,158.100 68.856,158.125 64.708 C 158.150 60.560,158.150 53.773,158.125 49.625 C 158.100 45.477,158.080 48.871,158.080 57.167 M185.246 57.000 C 185.246 65.204,185.267 68.560,185.292 64.458 C 185.316 60.356,185.316 53.644,185.292 49.542 C 185.267 45.440,185.246 48.796,185.246 57.000 M83.401 45.583 C 83.401 47.050,83.427 47.628,83.457 46.867 C 83.488 46.106,83.488 44.906,83.457 44.200 C 83.426 43.494,83.401 44.117,83.401 45.583 M168.555 44.083 C 168.555 44.725,168.586 44.967,168.622 44.621 C 168.658 44.275,168.657 43.750,168.620 43.455 C 168.583 43.159,168.554 43.442,168.555 44.083 M218.230 45.250 C 218.231 46.350,218.258 46.778,218.290 46.202 C 218.323 45.625,218.323 44.725,218.290 44.202 C 218.257 43.678,218.230 44.150,218.230 45.250 M195.731 47.000 C 195.731 48.146,195.758 48.615,195.790 48.042 C 195.823 47.469,195.823 46.531,195.790 45.958 C 195.758 45.385,195.731 45.854,195.731 47.000 M242.218 45.917 C 242.219 46.467,242.250 46.672,242.287 46.372 C 242.325 46.072,242.324 45.622,242.286 45.372 C 242.248 45.122,242.217 45.367,242.218 45.917 M168.553 48.000 C 168.553 48.596,168.584 48.840,168.621 48.542 C 168.658 48.244,168.658 47.756,168.621 47.458 C 168.584 47.160,168.553 47.404,168.553 48.000 M242.220 48.000 C 242.220 48.596,242.250 48.840,242.287 48.542 C 242.324 48.244,242.324 47.756,242.287 47.458 C 242.250 47.160,242.220 47.404,242.220 48.000 M218.230 49.250 C 218.231 50.350,218.258 50.778,218.290 50.202 C 218.323 49.625,218.323 48.725,218.290 48.202 C 218.257 47.678,218.230 48.150,218.230 49.250 M31.065 49.833 C 31.065 51.071,31.092 51.577,31.124 50.958 C 31.156 50.340,31.156 49.327,31.124 48.708 C 31.092 48.090,31.065 48.596,31.065 49.833 M83.390 49.583 C 83.391 50.317,83.420 50.596,83.456 50.204 C 83.491 49.812,83.490 49.212,83.454 48.871 C 83.419 48.529,83.390 48.850,83.390 49.583 M168.555 52.083 C 168.555 52.725,168.586 52.967,168.622 52.621 C 168.658 52.275,168.657 51.750,168.620 51.455 C 168.583 51.159,168.554 51.442,168.555 52.083 M242.220 53.833 C 242.220 54.429,242.250 54.673,242.287 54.375 C 242.324 54.077,242.324 53.590,242.287 53.292 C 242.250 52.994,242.220 53.237,242.220 53.833 M242.220 56.000 C 242.220 56.596,242.250 56.840,242.287 56.542 C 242.324 56.244,242.324 55.756,242.287 55.458 C 242.250 55.160,242.220 55.404,242.220 56.000 M168.552 56.083 C 168.553 56.633,168.584 56.838,168.621 56.539 C 168.658 56.239,168.657 55.789,168.619 55.539 C 168.581 55.288,168.551 55.533,168.552 56.083 M218.230 57.250 C 218.231 58.350,218.258 58.778,218.290 58.202 C 218.323 57.625,218.323 56.725,218.290 56.202 C 218.257 55.678,218.230 56.150,218.230 57.250 M6.574 57.426 C 6.255 57.681,6.255 57.683,6.583 57.532 C 6.767 57.447,7.029 57.337,7.167 57.286 C 7.383 57.206,7.381 57.191,7.157 57.180 C 7.014 57.173,6.751 57.283,6.574 57.426 M30.042 57.292 C 32.219 57.318,35.781 57.318,37.958 57.292 C 40.135 57.265,38.354 57.244,34.000 57.244 C 29.646 57.244,27.865 57.265,30.042 57.292 M53.227 58.667 C 53.227 59.538,53.255 59.894,53.289 59.458 C 53.324 59.023,53.324 58.310,53.289 57.875 C 53.255 57.440,53.227 57.796,53.227 58.667 M83.392 63.333 C 83.392 64.112,83.420 64.431,83.455 64.042 C 83.490 63.652,83.490 63.015,83.455 62.625 C 83.420 62.235,83.392 62.554,83.392 63.333 M53.236 66.000 C 53.236 67.696,53.261 68.390,53.291 67.542 C 53.321 66.694,53.321 65.306,53.291 64.458 C 53.261 63.610,53.236 64.304,53.236 66.000 M242.052 63.917 C 242.053 64.467,242.084 64.672,242.121 64.372 C 242.158 64.072,242.157 63.622,242.119 63.372 C 242.081 63.122,242.051 63.367,242.052 63.917 M218.231 69.083 C 218.232 70.275,218.258 70.741,218.290 70.118 C 218.323 69.496,218.322 68.521,218.290 67.951 C 218.257 67.382,218.231 67.892,218.231 69.083 M83.393 68.667 C 83.393 69.537,83.422 69.894,83.456 69.458 C 83.490 69.023,83.490 68.310,83.456 67.875 C 83.422 67.440,83.393 67.796,83.393 68.667 M53.227 70.667 C 53.227 71.537,53.255 71.894,53.289 71.458 C 53.324 71.023,53.324 70.310,53.289 69.875 C 53.255 69.440,53.227 69.796,53.227 70.667 M195.527 71.542 L 195.500 72.167 201.708 72.127 L 207.917 72.088 201.802 72.042 L 195.687 71.996 195.620 71.456 C 195.555 70.928,195.553 70.929,195.527 71.542 M19.834 72.042 C 19.834 72.110,21.221 72.167,22.917 72.167 C 25.073 72.167,26.000 72.111,26.000 71.981 C 26.000 71.849,25.110 71.813,22.917 71.856 C 21.221 71.889,19.834 71.973,19.834 72.042 M28.500 71.953 C 34.662 72.070,39.667 72.072,39.667 71.958 C 39.667 71.890,36.610 71.850,32.875 71.870 C 29.140 71.890,27.171 71.928,28.500 71.953 M45.125 71.957 C 45.790 71.989,46.877 71.989,47.542 71.957 C 48.206 71.925,47.663 71.900,46.333 71.900 C 45.004 71.900,44.460 71.925,45.125 71.957 M177.500 71.898 C 177.500 71.934,177.762 71.994,178.083 72.032 C 178.404 72.069,178.667 72.040,178.667 71.967 C 178.667 71.893,178.404 71.833,178.083 71.833 C 177.762 71.833,177.500 71.863,177.500 71.898 M180.288 71.954 C 180.584 71.990,181.109 71.991,181.455 71.955 C 181.800 71.919,181.558 71.889,180.917 71.888 C 180.275 71.887,179.992 71.917,180.288 71.954 M182.375 71.948 C 182.535 71.990,182.798 71.990,182.958 71.948 C 183.119 71.906,182.987 71.872,182.667 71.872 C 182.346 71.872,182.215 71.906,182.375 71.948 M183.333 72.000 C 183.333 72.095,183.779 72.158,184.375 72.147 C 185.204 72.131,185.315 72.101,184.917 72.000 C 184.172 71.811,183.333 71.811,183.333 72.000 M242.500 71.996 C 242.271 72.067,243.321 72.087,244.833 72.042 C 246.346 71.996,247.615 71.931,247.653 71.896 C 247.788 71.774,242.911 71.868,242.500 71.996 M248.960 71.951 C 249.168 71.991,249.468 71.990,249.627 71.948 C 249.786 71.906,249.617 71.874,249.250 71.875 C 248.883 71.877,248.753 71.911,248.960 71.951 M221.542 72.125 C 223.444 72.152,226.556 72.152,228.458 72.125 C 230.360 72.098,228.804 72.076,225.000 72.076 C 221.196 72.076,219.640 72.098,221.542 72.125 M252.383 72.124 C 253.190 72.155,254.465 72.155,255.217 72.124 C 255.968 72.093,255.308 72.068,253.750 72.068 C 252.192 72.068,251.577 72.094,252.383 72.124 M83.392 74.000 C 83.392 74.779,83.420 75.098,83.455 74.708 C 83.490 74.319,83.490 73.681,83.455 73.292 C 83.420 72.902,83.392 73.221,83.392 74.000 M83.392 76.833 C 83.392 77.612,83.420 77.931,83.455 77.542 C 83.490 77.152,83.490 76.515,83.455 76.125 C 83.420 75.735,83.392 76.054,83.392 76.833 M83.398 80.417 C 83.398 81.608,83.425 82.074,83.457 81.451 C 83.489 80.829,83.489 79.854,83.457 79.285 C 83.424 78.716,83.398 79.225,83.398 80.417 M212.697 79.249 C 212.593 79.479,212.575 79.667,212.659 79.667 C 212.823 79.667,213.077 79.021,212.959 78.903 C 212.920 78.864,212.802 79.020,212.697 79.249 M163.692 79.667 C 163.788 79.942,163.928 80.167,164.004 80.167 C 164.079 80.167,164.029 79.942,163.892 79.667 C 163.754 79.392,163.614 79.167,163.580 79.167 C 163.545 79.167,163.596 79.392,163.692 79.667 M273.005 79.500 C 273.005 79.787,273.283 80.279,273.380 80.162 C 273.415 80.119,273.345 79.896,273.224 79.667 C 273.103 79.437,273.005 79.362,273.005 79.500 M282.167 80.417 C 282.049 80.559,281.990 80.712,282.036 80.758 C 282.082 80.804,282.216 80.725,282.333 80.583 C 282.451 80.441,282.510 80.288,282.464 80.242 C 282.418 80.196,282.284 80.275,282.167 80.417 M211.208 81.370 C 211.002 81.470,210.833 81.616,210.833 81.696 C 210.833 81.776,211.021 81.718,211.250 81.568 C 211.861 81.167,211.840 81.066,211.208 81.370 M164.833 81.397 C 164.833 81.433,165.040 81.594,165.292 81.757 L 165.750 82.052 165.433 81.692 C 165.152 81.375,164.833 81.218,164.833 81.397 M59.667 82.341 C 59.484 82.464,59.552 82.480,59.917 82.398 C 60.529 82.261,60.663 82.166,60.236 82.169 C 60.060 82.171,59.804 82.248,59.667 82.341 M18.042 82.448 C 18.202 82.490,18.465 82.490,18.625 82.448 C 18.785 82.406,18.654 82.372,18.333 82.372 C 18.012 82.372,17.881 82.406,18.042 82.448 M29.445 82.458 C 34.778 82.483,43.553 82.483,48.945 82.458 C 54.338 82.434,49.975 82.414,39.250 82.414 C 28.525 82.414,24.113 82.434,29.445 82.458 M112.042 82.458 C 117.794 82.483,127.206 82.483,132.958 82.458 C 138.710 82.434,134.004 82.414,122.500 82.414 C 110.996 82.414,106.290 82.434,112.042 82.458 M183.208 82.456 C 183.644 82.490,184.356 82.490,184.792 82.456 C 185.227 82.422,184.871 82.393,184.000 82.393 C 183.129 82.393,182.773 82.422,183.208 82.456 M198.719 82.458 C 200.444 82.485,203.219 82.485,204.886 82.458 C 206.553 82.431,205.142 82.409,201.750 82.409 C 198.358 82.409,196.994 82.431,198.719 82.458 M221.542 82.458 C 223.444 82.485,226.556 82.485,228.458 82.458 C 230.360 82.431,228.804 82.410,225.000 82.410 C 221.196 82.410,219.640 82.431,221.542 82.458 M247.054 82.458 C 249.787 82.484,254.212 82.484,256.887 82.458 C 259.562 82.432,257.325 82.411,251.917 82.411 C 246.508 82.411,244.320 82.433,247.054 82.458 M64.667 86.000 C 64.667 86.191,64.904 86.191,65.500 86.000 C 65.872 85.881,65.849 85.865,65.292 85.850 C 64.948 85.841,64.667 85.908,64.667 86.000 M66.301 86.030 C 66.365 86.093,66.829 86.080,67.333 86.003 L 68.250 85.863 67.218 85.890 C 66.650 85.905,66.237 85.968,66.301 86.030 M264.260 86.078 C 264.438 86.213,264.696 86.322,264.833 86.322 C 264.978 86.322,264.908 86.221,264.667 86.083 C 264.119 85.770,263.848 85.767,264.260 86.078 M247.090 95.511 C 247.151 95.609,247.242 95.647,247.293 95.596 C 247.344 95.545,247.505 95.596,247.651 95.710 C 247.886 95.893,247.890 95.883,247.688 95.625 C 247.444 95.314,246.905 95.211,247.090 95.511 M262.708 95.948 C 262.869 95.990,263.131 95.990,263.292 95.948 C 263.452 95.906,263.321 95.872,263.000 95.872 C 262.679 95.872,262.548 95.906,262.708 95.948 M67.625 96.451 C 67.831 96.491,68.169 96.491,68.375 96.451 C 68.581 96.411,68.412 96.379,68.000 96.379 C 67.587 96.379,67.419 96.411,67.625 96.451 " stroke="none" fill="#dcdcdc" fill-rule="evenodd"></path><path id="path3" d="" stroke="none" fill="#a838e4" fill-rule="evenodd"></path><path id="path4" d="M195.718 51.917 C 195.719 52.467,195.750 52.672,195.787 52.372 C 195.825 52.072,195.824 51.622,195.786 51.372 C 195.748 51.122,195.717 51.367,195.718 51.917 M195.720 56.000 C 195.720 56.596,195.750 56.840,195.787 56.542 C 195.824 56.244,195.824 55.756,195.787 55.458 C 195.750 55.160,195.720 55.404,195.720 56.000 M20.377 71.953 C 20.631 71.991,21.006 71.990,21.211 71.951 C 21.416 71.911,21.208 71.880,20.750 71.881 C 20.292 71.882,20.124 71.915,20.377 71.953 M49.701 71.957 C 50.316 71.989,51.366 71.989,52.034 71.957 C 52.703 71.926,52.200 71.899,50.917 71.899 C 49.633 71.899,49.086 71.925,49.701 71.957 M176.708 71.948 C 176.869 71.990,177.131 71.990,177.292 71.948 C 177.452 71.906,177.321 71.872,177.000 71.872 C 176.679 71.872,176.548 71.906,176.708 71.948 M198.719 71.958 C 200.444 71.985,203.219 71.985,204.886 71.958 C 206.553 71.931,205.142 71.909,201.750 71.909 C 198.358 71.909,196.994 71.931,198.719 71.958 M221.542 71.958 C 223.444 71.985,226.556 71.985,228.458 71.958 C 230.360 71.931,228.804 71.910,225.000 71.910 C 221.196 71.910,219.640 71.931,221.542 71.958 M250.042 71.948 C 250.202 71.990,250.465 71.990,250.625 71.948 C 250.785 71.906,250.654 71.872,250.333 71.872 C 250.012 71.872,249.881 71.906,250.042 71.948 " stroke="none" fill="#e4e8e4" fill-rule="evenodd"></path></g></svg>