<?xml version="1.0" encoding="UTF-8" standalone="no"?>
<!DOCTYPE svg PUBLIC "-//W3C//DTD SVG 1.1//EN" "http://www.w3.org/Graphics/SVG/1.1/DTD/svg11.dtd">
<svg xmlns="http://www.w3.org/2000/svg" version="1.1" viewBox="0.00 0.00 2729.00 767.00">
<path fill="#ab9ef6" d="
  M 2034.91 579.82
  Q 2029.93 577.00 2025.66 574.33
  C 2021.28 571.59 2021.01 567.29 2021.02 562.49
  Q 2021.24 381.51 2021.01 204.50
  C 2021.00 199.40 2023.65 196.49 2027.76 194.12
  Q 2180.37 106.17 2343.86 11.18
  Q 2348.22 8.65 2352.29 11.00
  Q 2509.11 101.77 2666.68 193.15
  Q 2671.02 195.66 2672.00 199.93
  Q 2672.45 201.89 2672.46 206.45
  Q 2672.59 276.47 2672.45 343.38
  Q 2672.45 345.00 2671.01 344.25
  Q 2668.55 342.98 2665.20 341.04
  Q 2522.63 258.77 2354.44 161.09
  C 2348.30 157.53 2344.48 159.49 2338.50 162.97
  Q 2247.49 215.90 2157.68 267.11
  Q 2152.14 270.27 2152.15 276.47
  Q 2152.38 383.07 2152.13 490.19
  Q 2152.11 496.96 2157.49 500.07
  C 2261.33 560.01 2367.05 620.65 2472.87 682.21
  C 2474.23 683.00 2475.52 684.09 2476.91 684.81
  Q 2477.53 685.13 2476.95 685.51
  Q 2472.86 688.16 2468.78 690.46
  Q 2410.82 723.09 2352.79 755.82
  Q 2348.17 758.42 2343.74 755.89
  Q 2188.26 666.87 2034.91 579.82
  Z"
/>
<path fill="#e0e0e0" d="
  M 434.16 526.52
  Q 434.32 526.32 434.32 526.06
  Q 434.30 293.35 434.31 60.76
  A 0.48 0.47 -90.0 0 1 434.78 60.28
  L 478.30 60.31
  Q 479.03 60.31 479.03 61.04
  L 479.03 570.96
  Q 479.03 571.50 478.49 571.50
  Q 387.42 571.51 292.11 571.50
  C 265.52 571.50 238.99 568.07 213.64 561.06
  C 202.86 558.08 191.57 554.29 180.93 550.37
  C 107.28 523.20 42.49 459.05 36.78 377.26
  Q 36.16 368.41 36.19 357.94
  Q 36.34 304.76 36.24 254.25
  Q 36.24 253.48 37.01 253.48
  L 79.78 253.48
  A 0.61 0.61 0.0 0 1 80.39 254.09
  Q 80.35 364.75 80.35 364.75
  C 80.49 405.29 98.28 439.43 127.76 466.30
  C 172.57 507.12 228.99 526.57 289.75 526.65
  Q 361.62 526.76 433.72 526.74
  A 0.57 0.55 -70.5 0 0 434.16 526.52
  Z"
/>
<path fill="#e0e0e0" d="
  M 1197.53 526.75
  L 1320.12 526.75
  A 0.50 0.50 0.0 0 0 1320.62 526.25
  L 1320.62 198.72
  A 0.50 0.50 0.0 0 1 1321.12 198.22
  L 1364.25 198.23
  A 0.50 0.50 0.0 0 1 1364.75 198.73
  L 1364.75 526.25
  A 0.50 0.50 0.0 0 0 1365.25 526.75
  L 1488.46 526.75
  A 0.50 0.50 0.0 0 0 1488.96 526.25
  L 1488.96 197.48
  A 0.50 0.50 0.0 0 1 1489.46 196.98
  L 1532.49 196.98
  A 0.50 0.50 0.0 0 1 1532.99 197.48
  L 1532.99 526.25
  A 0.50 0.50 0.0 0 0 1533.49 526.75
  L 1687.52 526.75
  A 0.50 0.50 0.0 0 0 1688.02 526.25
  L 1688.01 197.48
  A 0.50 0.50 0.0 0 1 1688.51 196.98
  L 1731.66 196.97
  A 0.50 0.50 0.0 0 1 1732.16 197.47
  L 1732.16 571.00
  A 0.50 0.50 0.0 0 1 1731.66 571.50
  L 751.98 571.50
  A 0.50 0.50 0.0 0 1 751.48 571.00
  L 751.48 60.80
  A 0.50 0.50 0.0 0 1 751.98 60.30
  L 795.01 60.29
  A 0.50 0.50 0.0 0 1 795.51 60.79
  L 795.51 526.25
  A 0.50 0.50 0.0 0 0 796.01 526.75
  L 951.47 526.75
  A 0.50 0.50 0.0 0 0 951.97 526.25
  L 951.97 197.48
  A 0.50 0.50 0.0 0 1 952.47 196.98
  L 996.13 196.97
  A 0.50 0.50 0.0 0 1 996.63 197.47
  L 996.63 526.25
  A 0.50 0.50 0.0 0 0 997.13 526.75
  L 1151.80 526.75
  A 0.50 0.50 0.0 0 0 1152.30 526.25
  L 1152.30 198.74
  A 0.50 0.50 0.0 0 1 1152.80 198.24
  L 1196.53 198.22
  A 0.50 0.50 0.0 0 1 1197.03 198.72
  L 1197.03 526.25
  A 0.50 0.50 0.0 0 0 1197.53 526.75
  Z"
/>
<rect fill="#e0e0e0" x="1843.82" y="60.30" width="44.08" height="511.20" rx="0.27"/>
<rect fill="#e0e0e0" x="896.64" y="93.24" width="49.74" height="56.52" rx="0.33"/>
<rect fill="#e0e0e0" x="1002.24" y="93.24" width="49.72" height="56.52" rx="0.36"/>
<path fill="#e0e0e0" d="
  M 225.75 230.76
  Q 226.13 222.45 226.27 213.81
  Q 226.59 193.64 240.18 178.80
  Q 253.99 163.72 273.01 161.32
  C 291.54 158.97 308.04 168.10 321.48 179.83
  Q 321.91 180.21 321.72 180.75
  L 309.72 213.78
  Q 309.56 214.24 309.13 214.00
  Q 297.56 207.41 289.59 200.95
  C 283.79 196.25 275.41 196.65 269.76 200.95
  C 258.91 209.22 261.52 224.89 273.37 230.61
  Q 275.88 231.82 279.40 231.80
  Q 302.97 231.68 324.61 231.76
  Q 325.15 231.76 325.15 232.30
  L 325.05 271.16
  Q 325.05 271.50 324.71 271.50
  L 221.80 271.50
  Q 221.42 271.50 221.41 271.12
  Q 220.87 254.44 222.14 236.88
  C 222.25 235.38 222.00 233.95 222.04 232.47
  Q 222.05 231.78 222.74 231.72
  L 225.02 231.52
  Q 225.72 231.46 225.75 230.76
  Z"
/>
<path fill="#e0e0e0" d="
  M 553.50 662.69
  C 591.53 658.34 633.13 635.67 633.13 592.04
  Q 633.12 394.31 633.12 197.40
  A 0.42 0.41 90.0 0 1 633.53 196.98
  L 676.78 196.96
  A 0.44 0.43 -90.0 0 1 677.21 197.40
  Q 677.16 386.61 677.25 587.99
  Q 677.25 599.18 676.18 607.74
  Q 672.38 638.21 650.39 662.72
  C 625.92 689.98 590.27 703.89 553.58 706.78
  Q 553.00 706.83 553.00 706.24
  L 552.99 663.26
  Q 552.99 662.75 553.50 662.69
  Z"
/>
<path fill="#ab9ef6" d="
  M 2263.10 408.95
  Q 2239.88 395.57 2220.29 384.20
  C 2215.84 381.62 2214.28 377.83 2214.36 372.79
  Q 2214.87 340.80 2214.41 312.66
  C 2214.34 308.33 2216.37 305.40 2219.92 303.40
  Q 2246.95 288.12 2273.79 273.21
  Q 2277.80 270.98 2281.23 271.67
  Q 2283.18 272.06 2286.77 274.12
  Q 2366.69 319.98 2433.03 358.68
  Q 2435.37 360.04 2437.45 361.77
  A 0.38 0.38 0.0 0 1 2437.53 362.26
  L 2374.39 471.99
  A 0.75 0.74 -60.3 0 1 2373.38 472.27
  Q 2370.71 470.79 2368.33 469.42
  Q 2315.68 439.25 2263.10 408.95
  Z"
/>
<path fill="#ab9ef6" d="
  M 2601.52 603.46
  C 2544.65 570.73 2488.35 538.36 2432.40 505.87
  Q 2430.22 504.60 2428.80 502.91
  Q 2428.45 502.50 2428.72 502.04
  L 2491.44 393.47
  Q 2491.70 393.03 2492.18 393.21
  Q 2495.00 394.24 2497.75 395.82
  Q 2581.72 443.91 2667.83 493.23
  C 2671.09 495.10 2672.69 498.47 2672.65 502.15
  Q 2672.30 536.93 2672.67 566.78
  C 2672.73 571.40 2670.12 573.57 2666.28 575.69
  Q 2624.82 598.61 2613.78 604.48
  C 2609.71 606.65 2605.59 605.80 2601.52 603.46
  Z"
/>
<rect fill="#e0e0e0" x="1614.76" y="621.19" width="49.02" height="56.54" rx="0.27"/>
<rect fill="#e0e0e0" x="1720.34" y="621.18" width="49.10" height="56.54" rx="0.44"/>
</svg>
